<svg xmlns="http://www.w3.org/2000/svg" width="722" height="718" viewBox="135 157 722 718"><path fill="#c5a55a" fill-rule="evenodd" d="M478.5 157.528c-1.1.183-6.95.838-13 1.456-6.05.617-15.05 1.949-20 2.96a846 846 0 0 1-18.5 3.513c-11.395 2.008-18.144 3.594-19.5 4.581-.55.401-3.42 1.239-6.378 1.862-17.697 3.731-66.457 24.709-79.569 34.233-2.171 1.577-4.538 2.867-5.26 2.867-.723 0-3.446 1.494-6.053 3.319s-7.44 4.757-10.74 6.515-8.569 5.102-11.709 7.431-9.219 6.806-13.507 9.949C266.8 241.697 219 288.036 219 289.807c0 .473-1.84 2.848-4.09 5.277s-5.675 7.116-7.612 10.416-5.005 7.641-6.815 9.647c-1.81 2.005-4.084 5.38-5.054 7.5s-3.154 5.878-4.855 8.353-4.425 7.2-6.053 10.5-3.537 6.595-4.241 7.321c-1.074 1.109-1.684 3.496-1.132 4.429.081.137-.931 2.224-2.25 4.636-3.391 6.201-4.297 7.685-5.799 9.495-.727.876-1.088 2.204-.802 2.951s-.338 1.977-1.388 2.734-1.919 2.064-1.931 2.905-1.353 4.229-2.978 7.529-2.965 6.986-2.978 8.191c-.012 1.205-.41 2.431-.885 2.724-.474.294-1.414 2.683-2.087 5.309s-1.796 6.351-2.495 8.276c-2.702 7.439-3.771 10.667-5.055 15.272-.732 2.625-1.364 4.99-1.404 5.255s-.753 2.11-1.585 4.1c-.831 1.989-1.511 4.886-1.511 6.436s-.411 3.073-.913 3.383c-.972.601-2.366 7.086-2.59 12.054-.283 6.28-1.748 16.19-3.093 20.924-2.096 7.375-3.377 23.923-3.412 44.076-.032 18.499.186 22.804 2.026 40 2.08 19.443 2.548 22.61 4.437 30 .703 2.75 2.087 8.6 3.076 13s3.073 12.032 4.633 16.959c1.56 4.928 2.836 9.943 2.836 11.143s.775 2.481 1.722 2.845c1.475.566 1.511.794.25 1.591-.81.512-.959.938-.333.947.626.008 1.935 2.958 2.909 6.554s2.149 6.773 2.611 7.059.841 1.617.841 2.958c0 2.338 5.426 13.406 10.558 21.535 1.343 2.128 2.442 4.273 2.442 4.767 0 .493.625 1.416 1.389 2.05s1.871 3.051 2.461 5.372c1.032 4.062 3.341 8.127 11.4 20.068 2.062 3.056 3.75 6.004 3.75 6.551 0 1.985 16.715 24.058 25.747 33.999 2.885 3.177 5.009 6.013 4.718 6.303-.29.291.689 1.325 2.175 2.299 1.487.974 8.139 7.251 14.782 13.95 12.495 12.599 15.587 15.428 26.578 24.315a1293 1293 0 0 1 7.861 6.389c4.335 3.608 10.272 7.846 10.993 7.846.46 0 1.651.9 2.646 2s2.175 2 2.621 2c.445 0 4.538 2.409 9.095 5.353 14.471 9.352 20.022 12.537 30.784 17.666 5.775 2.752 11.175 5.451 12 5.997 2.694 1.783 11.411 5.733 15.5 7.023 2.2.694 5.575 2.248 7.5 3.452s4.85 2.528 6.5 2.943c4.971 1.249 5.661 1.435 15 4.04 22.805 6.361 38.09 9.841 51 11.611 7.7 1.056 18.658 2.663 24.351 3.573 12.71 2.03 55.984 1.376 73.649-1.113 16.971-2.391 25.811-3.721 28-4.212 1.1-.247 5.375-1.07 9.5-1.83 19.826-3.65 59.991-18.394 78-28.631 3.025-1.72 11.35-6.131 18.5-9.803 14.744-7.571 14.863-7.643 30.5-18.44 14.046-9.699 20.559-14.754 32.382-25.133C743.763 775.383 768 750.777 768 749.351c0-.52 1.849-2.724 4.108-4.898 4.431-4.264 11.264-12.826 14.237-17.841 1.015-1.712 2.63-4.012 3.588-5.112s2.786-3.8 4.06-6 4.018-6.071 6.097-8.603c6.122-7.454 20.956-34.568 23.431-42.828.401-1.337 1.571-3.812 2.6-5.5s1.873-3.647 1.875-4.354.792-2.48 1.754-3.94 2.724-5.831 3.914-9.715c1.191-3.883 3.553-11.069 5.25-15.97S842 614.847 842 613.829s.876-3.758 1.947-6.09 2.407-6.489 2.968-9.239 1.7-7.925 2.531-11.5 1.522-8.131 1.533-10.124c.012-1.994.628-5.369 1.37-7.5s1.675-7.926 2.071-12.876.891-10.35 1.097-12c2.704-21.611.932-66.258-3.511-88.5-.495-2.475-1.874-9.675-3.066-16-2.145-11.379-6.369-26.292-9.915-35-1.007-2.475-2.536-6.75-3.397-9.5-2.79-8.915-6.326-19.035-7.352-21.042-5.895-11.528-13.31-27.188-13.295-28.076.01-.614-2.064-4.214-4.61-8-2.545-3.785-5.052-8.083-5.57-9.552-.517-1.468-1.584-2.917-2.371-3.218s-1.43-1.437-1.43-2.522-.455-2.253-1.012-2.597c-.845-.523-4.297-5.492-9.457-13.616-10.931-17.208-49.477-59.964-60.089-66.651-2.781-1.753-6.156-4.358-7.5-5.789-1.343-1.43-5.142-4.428-8.442-6.662s-8.026-5.935-10.502-8.226c-2.476-2.29-7.876-6.133-12-8.538s-8.173-4.917-8.998-5.583c-.825-.665-6.45-3.795-12.5-6.955s-12.238-6.615-13.751-7.678c-7.92-5.563-26.122-12.403-61.749-23.202-14.562-4.414-32.668-7.188-60-9.191-8.966-.658-53.651-1.348-56.5-.874m-7 17.518c-11.485.637-17.49 1.535-40.5 6.052-9.013 1.77-30.062 7.757-36.5 10.381-3.3 1.346-11.4 4.495-18 6.998s-13.125 5.055-14.5 5.671-3.4 1.486-4.5 1.934c-8.985 3.659-30.391 14.509-35.61 18.05-8.55 5.801-10.001 6.704-12.558 7.815-1.193.517-4.343 2.547-7 4.51s-5.282 3.901-5.833 4.306c-11.915 8.775-17.3 13.103-21.227 17.062-2.624 2.647-6.347 5.883-8.272 7.192-1.925 1.308-5.75 4.835-8.5 7.837s-8.322 8.876-12.383 13.052c-4.06 4.177-9.444 10.294-11.963 13.594s-6.473 8.025-8.786 10.5c-4.838 5.178-8.368 9.56-8.368 10.388 0 .63-5.149 8.57-10.124 15.612-1.748 2.475-3.792 5.85-4.542 7.5s-1.775 3.675-2.278 4.5-1.928 3.75-3.166 6.5c-1.239 2.75-2.517 5.225-2.841 5.5s-2.111 3.539-3.97 7.253c-1.86 3.714-3.988 7.257-4.73 7.872S184 376.79 184 377.457c0 1.507-3.662 12.831-5.673 17.543a4112 4112 0 0 1-2.846 6.649c-.744 1.732-1.674 4.882-2.068 7-.393 2.118-1.956 6.326-3.473 9.351-4.128 8.235-5.783 12.594-6.433 16.952-.322 2.163-1.283 6.546-2.134 9.74-1.913 7.183-3.122 14.26-4.34 25.41-.517 4.731-1.14 9.681-1.385 11a3587 3587 0 0 0-1.084 5.898c-1.227 6.715-1.988 45.951-1.125 58 .63 8.797 2.66 23.531 3.513 25.5.476 1.1 1.368 5.6 1.982 10 1.704 12.215 2.866 18.368 3.729 19.747.431.689.822 1.703.868 2.253s.346 1.675.667 2.5 1.153 4.2 1.849 7.5c.695 3.3 1.875 6.504 2.622 7.12s2.228 4.434 3.291 8.483c1.064 4.049 2.407 7.519 2.987 7.713.579.193 1.053.843 1.053 1.445 0 1.793 5.973 17.961 8.032 21.739a369 369 0 0 1 4.187 8c1.255 2.475 2.619 4.65 3.031 4.833.413.184.75 1.148.75 2.143 0 .996.675 2.069 1.5 2.386.825.316 1.5 1.307 1.5 2.202s.841 2.822 1.869 4.282 2.183 3.666 2.567 4.904 1.118 2.25 1.631 2.25.933.445.933.99 2.125 4.257 4.722 8.25l5.75 8.84c5.317 8.174 7.518 10.944 18.028 22.676 26.158 29.203 48.515 49.486 68.748 62.371 8.743 5.568 17.213 11.232 18.824 12.587 1.61 1.355 2.928 2.129 2.928 1.72s.869.042 1.931 1.004c2.291 2.073 4.435 3.247 21.81 11.938 7.283 3.643 13.7 6.624 14.261 6.624s5.402 1.632 10.759 3.626a2504 2504 0 0 0 17.739 6.521c4.4 1.593 8.793 3.343 9.762 3.89 3.099 1.75 10.024 3.672 17.738 4.925 4.125.669 10.875 2.049 15 3.065 4.125 1.015 11.944 2.333 17.375 2.928 5.432.595 10.287 1.336 10.791 1.647 1.766 1.092 22.557 1.897 45.363 1.756 24.815-.154 44.509-2.013 57.752-5.452 4.28-1.112 10.314-2.433 13.41-2.937 5.357-.872 15.091-4.15 23.828-8.026 2.21-.98 7.61-2.702 12-3.826s11.131-3.592 14.981-5.484 11.489-5.352 16.975-7.688 13.669-6.429 18.185-9.096 8.801-4.882 9.524-4.922c.724-.04 2.666-.941 4.316-2.002s4.427-2.594 6.171-3.407c3.745-1.746 12.034-7.24 12.502-8.287.18-.402 3.665-2.948 7.745-5.657s10.38-7.708 14-11.108 8.832-8.147 11.582-10.549c5.017-4.383 19.007-18.346 31.478-31.417 3.673-3.85 9.077-10.6 12.009-15 2.931-4.4 6.609-9.478 8.171-11.285 1.563-1.806 2.842-3.743 2.842-4.303s2.084-4.211 4.631-8.113 5.89-9.488 7.43-12.414c1.539-2.927 4.405-7.425 6.369-9.997s3.57-5.456 3.57-6.409c0-.954.673-2.293 1.495-2.975.823-.683 2.021-2.993 2.662-5.135.642-2.141 1.769-4.393 2.505-5.003s1.338-1.999 1.338-3.084.649-3.168 1.442-4.628c.794-1.46 2.885-6.479 4.647-11.154s4.42-11.65 5.907-15.5 3.485-10.375 4.441-14.5 2.595-10.2 3.644-13.5c8.33-26.216 11.359-69.018 7.819-110.5-1.363-15.973-1.572-17.578-3.32-25.5-.85-3.85-1.553-8.433-1.563-10.185-.009-1.752-.499-4.452-1.087-6-.589-1.548-2.132-6.865-3.43-11.815-4.212-16.072-17.038-50.276-22.5-59.999-1.1-1.959-2-4.012-2-4.562 0-.855-4.783-9.161-10-17.365-.825-1.297-2.955-4.812-4.734-7.81s-5.266-8.482-7.75-12.186-4.516-7.14-4.516-7.636-1.832-3.273-4.072-6.172a1102 1102 0 0 1-8.192-10.77c-7.234-9.657-29.861-33.991-34.63-37.243-2.534-1.727-8.906-7.101-14.161-11.943-5.256-4.841-12.681-10.892-16.5-13.446s-10.585-7.281-15.035-10.506c-4.449-3.224-8.431-5.862-8.85-5.862-.418 0-5.234-2.511-10.701-5.579-19.701-11.057-38.132-19.488-53.359-24.408-3.85-1.244-8.575-3.061-10.5-4.038-4.607-2.339-15.557-5.532-25.5-7.437-4.4-.842-10.25-1.964-13-2.493-24.238-4.657-55.559-6.019-92-3.999m64 171.865c-4.843 1.426-5.317 2.242-10.785 18.589-1.656 4.95-3.57 10.35-4.253 12s-3.314 9.125-5.847 16.612c-4.31 12.739-7.599 21.336-9.533 24.921-.455.843-1.162 3.093-1.57 5s-1.076 3.917-1.482 4.467c-.407.55-2.222 5.275-4.033 10.5-4.545 13.113-13.977 37.27-15.062 38.577-.491.593-2.209 4.643-3.817 9S475.2 496.975 473.984 500c-3.559 8.856-6.984 19.283-6.984 21.265 0 1.009-.768 3.274-1.706 5.035-.938 1.76-1.616 3.529-1.506 3.931s-.626 2.202-1.635 4c-1.01 1.798-2.426 5.06-3.147 7.248-.722 2.189-3.043 7.692-5.159 12.229s-3.847 8.708-3.847 9.27c0 1.686-1.723 1.153-2.354-.728-.324-.962-1.03-2.425-1.571-3.25-2.081-3.175-7.075-14.549-7.075-16.113 0-.903-.646-2.178-1.436-2.834-.789-.655-1.738-2.623-2.108-4.372-.371-1.75-1.5-4.756-2.511-6.681s-3.011-6.875-4.444-11c-2.326-6.692-4.541-11.745-12.934-29.5-1.3-2.75-2.696-6.125-3.103-7.5s-1.803-4.834-3.102-7.686-2.362-5.863-2.362-6.691-.392-1.747-.87-2.043c-.479-.296-1.902-3.36-3.163-6.809-2.854-7.809-8.84-22.535-10.028-24.673-1.162-2.09-6.928-17.37-6.934-18.374-.003-.426-1.955-4.926-4.339-10-2.383-5.073-5.361-12.374-6.618-16.224-1.256-3.85-2.848-8.125-3.537-9.5s-1.82-4.3-2.514-6.5-1.758-4.9-2.365-6-2.046-4.25-3.196-7-2.717-6.462-3.483-8.25l-1.391-3.25-16.531-.111c-26.442-.178-70.433.242-71.141.679-1.706 1.054-1.381 4.333.688 6.927 1.991 2.497 3.225 2.973 9.431 3.636 16.291 1.741 24.947 9.904 26.579 25.064.675 6.279.625 141.893-.061 164.805a5043 5043 0 0 0-1.018 41.245c-.243 12.21-.888 22.595-1.471 23.684-.571 1.067-1.049 2.982-1.061 4.255-.013 1.274-1.251 4.566-2.75 7.316-3.3 6.051-11.459 10.924-20.098 12.003-5.991.749-11.575 4.942-10.944 8.219.773 4.012 3.46 4.232 48.076 3.952 47.848-.3 46.63-.113 45.346-6.953-.645-3.441-.674-3.457-8.377-4.698-10.364-1.669-14.947-3.565-19.79-8.19-7.103-6.782-7.927-10.666-8.026-37.833-.137-37.367-.216-133.159-.123-148.5.047-7.7-.236-16.587-.628-19.75-.4-3.219-.323-5.75.174-5.75.488 0 1.314-3.712 1.835-8.25.645-5.61 1.189-7.61 1.702-6.25 1.116 2.963 3.668 8.635 5.242 11.654.761 1.46 1.384 3.225 1.384 3.922 0 .696.689 2.028 1.531 2.958s1.698 2.559 1.902 3.619 1.69 4.835 3.302 8.387A608 608 0 0 1 348.99 446c1.278 3.025 4.44 10 7.027 15.5s5.276 11.8 5.974 14 1.602 4.45 2.009 5 1.298 2.8 1.981 5 2.317 5.969 3.631 8.376 2.391 4.882 2.394 5.5.72 2.474 1.593 4.124c2.348 4.439 5.303 12.119 5.87 15.252.274 1.511 2.391 6.347 4.705 10.746s4.332 9.144 4.485 10.543c.241 2.2 1.896 6.147 9.897 23.61.794 1.733 1.444 3.771 1.444 4.528s.622 2.264 1.382 3.348 1.447 2.306 1.527 2.713c.209 1.061 1.055 3.448 3.636 10.26 1.251 3.3 2.598 7.125 2.994 8.5.395 1.375 1.786 4.521 3.09 6.992s2.371 4.912 2.371 5.425 1.873 4.749 4.162 9.414c2.29 4.665 5.809 13.158 7.82 18.874 6.422 18.25 9.814 18.902 15.557 2.989 5.757-15.951 10.567-28.416 11.843-30.694.771-1.375 2.537-6.1 3.926-10.5 1.388-4.4 3.234-9.35 4.102-11s1.58-3.771 1.584-4.713c.006-1.672 2.709-9.279 5.433-15.287 2.592-5.718 5.542-14.017 6.221-17.5.663-3.402 2.75-8.437 9.176-22.144 1.714-3.654 4.494-10.946 6.178-16.205 3.158-9.857 7.886-22.03 12.293-31.651 1.386-3.025 3.923-10 5.64-15.5s3.955-11.8 4.976-14 2.832-6.475 4.026-9.5c2.57-6.512 4.001-9.91 5.105-12.118.446-.889 1.334-3.589 1.974-6 1.702-6.402 7.024-18.254 8.613-19.182.754-.44 1.371-1.479 1.371-2.309s.429-1.244.954-.919c.57.352.98 13.151 1.019 31.809.036 17.17.11 34.594.164 38.719.371 27.871-1.002 146.29-1.735 149.717-1.097 5.128-7.098 12.583-12.209 15.168-2.031 1.028-7.068 2.621-11.193 3.541-11.164 2.49-13 3.489-13 7.078 0 1.881.716 3.462 1.904 4.204 1.449.905 22.583 1.08 88.25.733 47.49-.251 95.909-.453 107.596-.449 24.767.009 24.178.236 26.103-10.069.66-3.532 1.681-8.448 2.269-10.923s1.247-7.184 1.465-10.464 1.251-10.031 2.295-15c1.044-4.97 1.934-9.711 1.978-10.536s.545-3.975 1.114-7c.988-5.26.922-5.598-1.526-7.75-4.387-3.857-5.071-3.261-11.198 9.75-6.949 14.759-16.138 29-18.711 29-.287 0-2.64 1.617-5.23 3.594-5.158 3.937-13.782 8.402-16.246 8.412-.86.004-2.694.597-4.077 1.318-5.934 3.098-17.558 4.007-42.831 3.353-28.996-.752-32.385-1.524-40.125-9.148-7.318-7.207-7.105-3.036-6.797-133.029l.267-113 2.342-4.5c4.179-8.03 11.316-12.292 24.627-14.706 4.417-.802 8.706-1.803 9.531-2.226 1.864-.956 2.55-5.918 1.028-7.44-1.197-1.197-83.602-1.872-87.528-.717"/></svg>