<svg xmlns="http://www.w3.org/2000/svg" viewBox="63 85 866 862">
  <rect x="63" y="85" width="866" height="862" fill="#0B1D33"/>
  <path d="M 478.500 157.528 C 477.400 157.711, 471.550 158.366, 465.500 158.984 C 459.450 159.601, 450.450 160.933, 445.500 161.944 C 440.550 162.955, 432.225 164.536, 427 165.457 C 415.605 167.465, 408.856 169.051, 407.500 170.038 C 406.950 170.439, 404.080 171.277, 401.122 171.900 C 383.425 175.631, 334.665 196.609, 321.553 206.133 C 319.382 207.710, 317.015 209, 316.293 209 C 315.570 209, 312.847 210.494, 310.240 212.319 C 307.633 214.144, 302.800 217.076, 299.500 218.834 C 296.200 220.593, 290.931 223.936, 287.791 226.265 C 284.651 228.594, 278.572 233.071, 274.284 236.214 C 266.800 241.697, 219 288.036, 219 289.807 C 219 290.280, 217.160 292.655, 214.910 295.084 C 212.661 297.513, 209.235 302.200, 207.298 305.500 C 205.360 308.800, 202.293 313.141, 200.483 315.147 C 198.673 317.152, 196.399 320.527, 195.429 322.647 C 194.459 324.766, 192.275 328.525, 190.574 331 C 188.873 333.475, 186.149 338.200, 184.521 341.500 C 182.893 344.800, 180.984 348.095, 180.280 348.821 C 179.206 349.930, 178.596 352.317, 179.148 353.250 C 179.229 353.387, 178.217 355.474, 176.898 357.886 C 173.507 364.087, 172.601 365.571, 171.099 367.381 C 170.372 368.257, 170.011 369.585, 170.297 370.332 C 170.584 371.079, 169.959 372.309, 168.909 373.066 C 167.859 373.822, 166.990 375.130, 166.978 375.971 C 166.965 376.812, 165.625 380.200, 164 383.500 C 162.375 386.800, 161.035 390.486, 161.022 391.691 C 161.010 392.896, 160.612 394.122, 160.137 394.415 C 159.663 394.709, 158.723 397.098, 158.050 399.724 C 157.377 402.351, 156.254 406.075, 155.555 408 C 152.853 415.439, 151.784 418.667, 150.500 423.272 C 149.768 425.897, 149.136 428.262, 149.096 428.527 C 149.056 428.792, 148.343 430.637, 147.511 432.627 C 146.680 434.616, 146 437.513, 146 439.063 C 146 440.613, 145.589 442.136, 145.087 442.446 C 144.115 443.047, 142.721 449.532, 142.497 454.500 C 142.214 460.780, 140.749 470.690, 139.404 475.424 C 137.308 482.799, 136.027 499.347, 135.992 519.500 C 135.960 537.999, 136.178 542.304, 138.018 559.500 C 140.098 578.943, 140.566 582.110, 142.455 589.500 C 143.158 592.250, 144.542 598.100, 145.531 602.500 C 146.519 606.900, 148.604 614.532, 150.164 619.459 C 151.724 624.387, 153 629.402, 153 630.602 C 153 631.803, 153.775 633.083, 154.722 633.447 C 156.197 634.013, 156.233 634.241, 154.972 635.038 C 154.162 635.550, 154.013 635.976, 154.639 635.985 C 155.265 635.993, 156.574 638.943, 157.548 642.539 C 158.522 646.136, 159.697 649.312, 160.159 649.598 C 160.622 649.884, 161 651.215, 161 652.556 C 161 654.894, 166.426 665.962, 171.558 674.091 C 172.901 676.219, 174 678.364, 174 678.858 C 174 679.351, 174.625 680.274, 175.389 680.908 C 176.153 681.542, 177.260 683.959, 177.850 686.280 C 178.882 690.342, 181.191 694.407, 189.250 706.348 C 191.312 709.404, 193 712.352, 193 712.899 C 193 714.884, 209.715 736.957, 218.747 746.898 C 221.632 750.075, 223.756 752.911, 223.465 753.201 C 223.175 753.492, 224.154 754.526, 225.640 755.500 C 227.127 756.474, 233.779 762.751, 240.422 769.450 C 252.917 782.049, 256.009 784.878, 267 793.765 C 270.575 796.655, 274.113 799.530, 274.861 800.154 C 279.196 803.762, 285.133 808, 285.854 808 C 286.314 808, 287.505 808.900, 288.500 810 C 289.495 811.100, 290.675 812, 291.121 812 C 291.566 812, 295.659 814.409, 300.216 817.353 C 314.687 826.705, 320.238 829.890, 331 835.019 C 336.775 837.771, 342.175 840.470, 343 841.016 C 345.694 842.799, 354.411 846.749, 358.500 848.039 C 360.700 848.733, 364.075 850.287, 366 851.491 C 367.925 852.695, 370.850 854.019, 372.500 854.434 C 377.471 855.683, 378.161 855.869, 387.500 858.474 C 410.305 864.835, 425.590 868.315, 438.500 870.085 C 446.200 871.141, 457.158 872.748, 462.851 873.658 C 475.561 875.688, 518.835 875.034, 536.500 872.545 C 553.471 870.154, 562.311 868.824, 564.500 868.333 C 565.600 868.086, 569.875 867.263, 574 866.503 C 593.826 862.853, 633.991 848.109, 652 837.872 C 655.025 836.152, 663.350 831.741, 670.500 828.069 C 685.244 820.498, 685.363 820.426, 701 809.629 C 715.046 799.930, 721.559 794.875, 733.382 784.496 C 743.763 775.383, 768 750.777, 768 749.351 C 768 748.831, 769.849 746.627, 772.108 744.453 C 776.539 740.189, 783.372 731.627, 786.345 726.612 C 787.360 724.900, 788.975 722.600, 789.933 721.500 C 790.892 720.400, 792.719 717.700, 793.993 715.500 C 795.267 713.300, 798.011 709.429, 800.090 706.897 C 806.212 699.443, 821.046 672.329, 823.521 664.069 C 823.922 662.732, 825.092 660.257, 826.121 658.569 C 827.150 656.881, 827.994 654.922, 827.996 654.215 C 827.998 653.508, 828.788 651.735, 829.750 650.275 C 830.712 648.815, 832.474 644.444, 833.664 640.560 C 834.855 636.677, 837.217 629.491, 838.914 624.590 C 840.611 619.690, 842 614.847, 842 613.829 C 842 612.811, 842.876 610.071, 843.947 607.739 C 845.019 605.408, 846.354 601.250, 846.915 598.500 C 847.476 595.750, 848.615 590.575, 849.446 587 C 850.278 583.425, 850.968 578.869, 850.979 576.876 C 850.991 574.882, 851.607 571.507, 852.349 569.376 C 853.092 567.244, 854.024 561.450, 854.420 556.500 C 854.817 551.550, 855.311 546.150, 855.517 544.500 C 858.221 522.889, 856.449 478.242, 852.006 456 C 851.511 453.525, 850.132 446.325, 848.940 440 C 846.795 428.621, 842.571 413.708, 839.025 405 C 838.018 402.525, 836.489 398.250, 835.628 395.500 C 832.838 386.585, 829.302 376.465, 828.276 374.458 C 822.381 362.930, 814.966 347.270, 814.981 346.382 C 814.991 345.768, 812.917 342.168, 810.371 338.382 C 807.826 334.597, 805.319 330.299, 804.801 328.830 C 804.284 327.362, 803.217 325.913, 802.430 325.612 C 801.644 325.310, 801 324.175, 801 323.090 C 801 322.006, 800.545 320.837, 799.988 320.493 C 799.143 319.970, 795.691 315.001, 790.531 306.877 C 779.600 289.669, 741.054 246.913, 730.442 240.226 C 727.661 238.473, 724.286 235.868, 722.942 234.437 C 721.599 233.007, 717.800 230.009, 714.500 227.775 C 711.200 225.542, 706.474 221.840, 703.998 219.549 C 701.522 217.259, 696.122 213.416, 691.998 211.011 C 687.874 208.606, 683.825 206.094, 683 205.428 C 682.175 204.763, 676.550 201.633, 670.500 198.473 C 664.450 195.313, 658.262 191.858, 656.749 190.795 C 648.829 185.232, 630.627 178.392, 595 167.593 C 580.438 163.179, 562.332 160.405, 535 158.402 C 526.034 157.744, 481.349 157.054, 478.500 157.528 M 471.500 175.046 C 460.015 175.683, 454.010 176.581, 431 181.098 C 421.987 182.868, 400.938 188.855, 394.500 191.479 C 391.200 192.825, 383.100 195.974, 376.500 198.477 C 369.900 200.980, 363.375 203.532, 362 204.148 C 360.625 204.764, 358.600 205.634, 357.500 206.082 C 348.515 209.741, 327.109 220.591, 321.890 224.132 C 313.340 229.933, 311.889 230.836, 309.332 231.947 C 308.139 232.464, 304.989 234.494, 302.332 236.457 C 299.674 238.420, 297.050 240.358, 296.499 240.763 C 284.584 249.538, 279.199 253.866, 275.272 257.825 C 272.648 260.472, 268.925 263.708, 267 265.017 C 265.075 266.325, 261.250 269.852, 258.500 272.854 C 255.750 275.856, 250.178 281.730, 246.117 285.906 C 242.057 290.083, 236.673 296.200, 234.154 299.500 C 231.635 302.800, 227.681 307.525, 225.368 310 C 220.530 315.178, 217 319.560, 217 320.388 C 217 321.018, 211.851 328.958, 206.876 336 C 205.128 338.475, 203.084 341.850, 202.334 343.500 C 201.584 345.150, 200.559 347.175, 200.056 348 C 199.553 348.825, 198.128 351.750, 196.890 354.500 C 195.651 357.250, 194.373 359.725, 194.049 360 C 193.725 360.275, 191.938 363.539, 190.079 367.253 C 188.219 370.967, 186.091 374.510, 185.349 375.125 C 184.607 375.741, 184 376.790, 184 377.457 C 184 378.964, 180.338 390.288, 178.327 395 C 177.505 396.925, 176.225 399.917, 175.481 401.649 C 174.737 403.381, 173.807 406.531, 173.413 408.649 C 173.020 410.767, 171.457 414.975, 169.940 418 C 165.812 426.235, 164.157 430.594, 163.507 434.952 C 163.185 437.115, 162.224 441.498, 161.373 444.692 C 159.460 451.875, 158.251 458.952, 157.033 470.102 C 156.516 474.833, 155.893 479.783, 155.648 481.102 C 155.404 482.421, 154.916 485.075, 154.564 487 C 153.337 493.715, 152.576 532.951, 153.439 545 C 154.069 553.797, 156.099 568.531, 156.952 570.500 C 157.428 571.600, 158.320 576.100, 158.934 580.500 C 160.638 592.715, 161.800 598.868, 162.663 600.247 C 163.094 600.936, 163.485 601.950, 163.531 602.500 C 163.577 603.050, 163.877 604.175, 164.198 605 C 164.519 605.825, 165.351 609.200, 166.047 612.500 C 166.742 615.800, 167.922 619.004, 168.669 619.620 C 169.416 620.237, 170.897 624.054, 171.960 628.103 C 173.024 632.152, 174.367 635.622, 174.947 635.816 C 175.526 636.009, 176 636.659, 176 637.261 C 176 639.054, 181.973 655.222, 184.032 659 C 185.081 660.925, 186.965 664.525, 188.219 667 C 189.474 669.475, 190.838 671.650, 191.250 671.833 C 191.663 672.017, 192 672.981, 192 673.976 C 192 674.972, 192.675 676.045, 193.500 676.362 C 194.325 676.678, 195 677.669, 195 678.564 C 195 679.459, 195.841 681.386, 196.869 682.846 C 197.897 684.306, 199.052 686.512, 199.436 687.750 C 199.820 688.987, 200.554 690, 201.067 690 C 201.580 690, 202 690.445, 202 690.990 C 202 691.534, 204.125 695.247, 206.722 699.240 C 209.319 703.233, 211.907 707.211, 212.472 708.080 C 217.789 716.254, 219.990 719.024, 230.500 730.756 C 256.658 759.959, 279.015 780.242, 299.248 793.127 C 307.991 798.695, 316.461 804.359, 318.072 805.714 C 319.682 807.069, 321 807.843, 321 807.434 C 321 807.025, 321.869 807.476, 322.931 808.438 C 325.222 810.511, 327.366 811.685, 344.741 820.376 C 352.024 824.019, 358.441 827, 359.002 827 C 359.563 827, 364.404 828.632, 369.761 830.626 C 375.117 832.620, 383.100 835.555, 387.500 837.147 C 391.900 838.740, 396.293 840.490, 397.262 841.037 C 400.361 842.787, 407.286 844.709, 415 845.962 C 419.125 846.631, 425.875 848.011, 430 849.027 C 434.125 850.042, 441.944 851.360, 447.375 851.955 C 452.807 852.550, 457.662 853.291, 458.166 853.602 C 459.932 854.694, 480.723 855.499, 503.529 855.358 C 528.344 855.204, 548.038 853.345, 561.281 849.906 C 565.561 848.794, 571.595 847.473, 574.691 846.969 C 580.048 846.097, 589.782 842.819, 598.519 838.943 C 600.729 837.963, 606.129 836.241, 610.519 835.117 C 614.908 833.993, 621.650 831.525, 625.500 829.633 C 629.350 827.741, 636.989 824.281, 642.475 821.945 C 647.961 819.609, 656.144 815.516, 660.660 812.849 C 665.175 810.182, 669.461 807.967, 670.184 807.927 C 670.908 807.887, 672.850 806.986, 674.500 805.925 C 676.150 804.864, 678.927 803.331, 680.671 802.518 C 684.416 800.772, 692.705 795.278, 693.173 794.231 C 693.353 793.829, 696.838 791.283, 700.918 788.574 C 704.998 785.865, 711.298 780.866, 714.918 777.466 C 718.538 774.066, 723.750 769.319, 726.500 766.917 C 731.517 762.534, 745.507 748.571, 757.978 735.500 C 761.651 731.650, 767.055 724.900, 769.987 720.500 C 772.918 716.100, 776.596 711.022, 778.158 709.215 C 779.721 707.409, 781 705.472, 781 704.912 C 781 704.352, 783.084 700.701, 785.631 696.799 C 788.178 692.898, 791.521 687.311, 793.061 684.385 C 794.600 681.458, 797.466 676.960, 799.430 674.388 C 801.393 671.817, 803 668.932, 803 667.979 C 803 667.025, 803.673 665.686, 804.495 665.004 C 805.318 664.321, 806.516 662.011, 807.157 659.869 C 807.799 657.728, 808.926 655.476, 809.662 654.866 C 810.398 654.255, 811 652.867, 811 651.782 C 811 650.697, 811.649 648.614, 812.442 647.154 C 813.236 645.694, 815.327 640.675, 817.089 636 C 818.851 631.325, 821.509 624.350, 822.996 620.500 C 824.483 616.650, 826.481 610.125, 827.437 606 C 828.393 601.875, 830.032 595.800, 831.081 592.500 C 839.411 566.284, 842.440 523.482, 838.900 482 C 837.537 466.027, 837.328 464.422, 835.580 456.500 C 834.730 452.650, 834.027 448.067, 834.017 446.315 C 834.008 444.563, 833.518 441.863, 832.930 440.315 C 832.341 438.767, 830.798 433.450, 829.500 428.500 C 825.288 412.428, 812.462 378.224, 807 368.501 C 805.900 366.542, 805 364.489, 805 363.939 C 805 363.084, 800.217 354.778, 795 346.574 C 794.175 345.277, 792.045 341.762, 790.266 338.764 C 788.488 335.766, 785 330.282, 782.516 326.578 C 780.032 322.874, 778 319.438, 778 318.942 C 778 318.446, 776.168 315.669, 773.928 312.770 C 771.689 309.872, 768.002 305.025, 765.736 302 C 758.502 292.343, 735.875 268.009, 731.106 264.757 C 728.572 263.030, 722.200 257.656, 716.945 252.814 C 711.689 247.973, 704.264 241.922, 700.445 239.368 C 696.625 236.814, 689.860 232.087, 685.410 228.862 C 680.961 225.638, 676.979 223, 676.560 223 C 676.142 223, 671.326 220.489, 665.859 217.421 C 646.158 206.364, 627.727 197.933, 612.500 193.013 C 608.650 191.769, 603.925 189.952, 602 188.975 C 597.393 186.636, 586.443 183.443, 576.500 181.538 C 572.100 180.696, 566.250 179.574, 563.500 179.045 C 539.262 174.388, 507.941 173.026, 471.500 175.046 M 535.500 346.911 C 530.657 348.337, 530.183 349.153, 524.715 365.500 C 523.059 370.450, 521.145 375.850, 520.462 377.500 C 519.779 379.150, 517.148 386.625, 514.615 394.112 C 510.305 406.851, 507.016 415.448, 505.082 419.033 C 504.627 419.876, 503.920 422.126, 503.512 424.033 C 503.103 425.940, 502.436 427.950, 502.030 428.500 C 501.623 429.050, 499.808 433.775, 497.997 439 C 493.452 452.113, 484.020 476.270, 482.935 477.577 C 482.444 478.170, 480.726 482.220, 479.118 486.577 C 477.510 490.935, 475.200 496.975, 473.984 500 C 470.425 508.856, 467 519.283, 467 521.265 C 467 522.274, 466.232 524.539, 465.294 526.300 C 464.356 528.060, 463.678 529.829, 463.788 530.231 C 463.898 530.633, 463.162 532.433, 462.153 534.231 C 461.143 536.029, 459.727 539.291, 459.006 541.479 C 458.284 543.668, 455.963 549.171, 453.847 553.708 C 451.731 558.245, 450 562.416, 450 562.978 C 450 564.664, 448.277 564.131, 447.646 562.250 C 447.322 561.288, 446.616 559.825, 446.075 559 C 443.994 555.825, 439 544.451, 439 542.887 C 439 541.984, 438.354 540.709, 437.564 540.053 C 436.775 539.398, 435.826 537.430, 435.456 535.681 C 435.085 533.931, 433.956 530.925, 432.945 529 C 431.934 527.075, 429.934 522.125, 428.501 518 C 426.175 511.308, 423.960 506.255, 415.567 488.500 C 414.267 485.750, 412.871 482.375, 412.464 481 C 412.057 479.625, 410.661 476.166, 409.362 473.314 C 408.063 470.462, 407 467.451, 407 466.623 C 407 465.795, 406.608 464.876, 406.130 464.580 C 405.651 464.284, 404.228 461.220, 402.967 457.771 C 400.113 449.962, 394.127 435.236, 392.939 433.098 C 391.777 431.008, 386.011 415.728, 386.005 414.724 C 386.002 414.298, 384.050 409.798, 381.666 404.724 C 379.283 399.651, 376.305 392.350, 375.048 388.500 C 373.792 384.650, 372.200 380.375, 371.511 379 C 370.822 377.625, 369.691 374.700, 368.997 372.500 C 368.304 370.300, 367.239 367.600, 366.632 366.500 C 366.024 365.400, 364.586 362.250, 363.436 359.500 C 362.286 356.750, 360.719 353.038, 359.953 351.250 L 358.562 348 342.031 347.889 C 315.589 347.711, 271.598 348.131, 270.890 348.568 C 269.184 349.622, 269.509 352.901, 271.578 355.495 C 273.569 357.992, 274.803 358.468, 281.009 359.131 C 297.300 360.872, 305.956 369.035, 307.588 384.195 C 308.263 390.474, 308.213 526.088, 307.527 549 C 307.206 559.725, 306.748 578.285, 306.509 590.245 C 306.266 602.455, 305.621 612.840, 305.038 613.929 C 304.467 614.996, 303.989 616.911, 303.977 618.184 C 303.964 619.458, 302.726 622.750, 301.227 625.500 C 297.927 631.551, 289.768 636.424, 281.129 637.503 C 275.138 638.252, 269.554 642.445, 270.185 645.722 C 270.958 649.734, 273.645 649.954, 318.261 649.674 C 366.109 649.374, 364.891 649.561, 363.607 642.721 C 362.962 639.280, 362.933 639.264, 355.230 638.023 C 344.866 636.354, 340.283 634.458, 335.440 629.833 C 328.337 623.051, 327.513 619.167, 327.414 592 C 327.277 554.633, 327.198 458.841, 327.291 443.500 C 327.338 435.800, 327.055 426.913, 326.663 423.750 C 326.263 420.531, 326.340 418, 326.837 418 C 327.325 418, 328.151 414.288, 328.672 409.750 C 329.317 404.140, 329.861 402.140, 330.374 403.500 C 331.490 406.463, 334.042 412.135, 335.616 415.154 C 336.377 416.614, 337 418.379, 337 419.076 C 337 419.772, 337.689 421.104, 338.531 422.034 C 339.373 422.965, 340.229 424.593, 340.433 425.653 C 340.637 426.713, 342.123 430.488, 343.735 434.040 C 345.347 437.593, 347.712 442.975, 348.990 446 C 350.268 449.025, 353.430 456, 356.017 461.500 C 358.604 467, 361.293 473.300, 361.991 475.500 C 362.689 477.700, 363.593 479.950, 364 480.500 C 364.407 481.050, 365.298 483.300, 365.981 485.500 C 366.664 487.700, 368.298 491.469, 369.612 493.876 C 370.925 496.283, 372.003 498.758, 372.006 499.376 C 372.010 499.994, 372.726 501.850, 373.599 503.500 C 375.947 507.939, 378.902 515.619, 379.469 518.752 C 379.743 520.263, 381.860 525.099, 384.174 529.498 C 386.487 533.897, 388.506 538.642, 388.659 540.041 C 388.900 542.241, 390.555 546.188, 398.556 563.651 C 399.350 565.384, 400 567.422, 400 568.179 C 400 568.936, 400.622 570.443, 401.382 571.527 C 402.141 572.612, 402.829 573.833, 402.909 574.240 C 403.118 575.301, 403.964 577.688, 406.545 584.500 C 407.796 587.800, 409.143 591.625, 409.539 593 C 409.934 594.375, 411.325 597.521, 412.629 599.992 C 413.933 602.463, 415 604.904, 415 605.417 C 415 605.930, 416.873 610.166, 419.162 614.831 C 421.452 619.496, 424.971 627.989, 426.982 633.705 C 433.404 651.955, 436.796 652.607, 442.539 636.694 C 448.296 620.743, 453.106 608.278, 454.382 606 C 455.153 604.625, 456.919 599.900, 458.308 595.500 C 459.696 591.100, 461.542 586.150, 462.410 584.500 C 463.278 582.850, 463.990 580.729, 463.994 579.787 C 464 578.115, 466.703 570.508, 469.427 564.500 C 472.019 558.782, 474.969 550.483, 475.648 547 C 476.311 543.598, 478.398 538.563, 484.824 524.856 C 486.538 521.202, 489.318 513.910, 491.002 508.651 C 494.160 498.794, 498.888 486.621, 503.295 477 C 504.681 473.975, 507.218 467, 508.935 461.500 C 510.651 456, 512.890 449.700, 513.911 447.500 C 514.931 445.300, 516.743 441.025, 517.937 438 C 520.507 431.488, 521.938 428.090, 523.042 425.882 C 523.488 424.993, 524.376 422.293, 525.016 419.882 C 526.718 413.480, 532.040 401.628, 533.629 400.700 C 534.383 400.260, 535 399.221, 535 398.391 C 535 397.561, 535.429 397.147, 535.954 397.472 C 536.524 397.824, 536.934 410.623, 536.973 429.281 C 537.009 446.451, 537.083 463.875, 537.137 468 C 537.508 495.871, 536.135 614.290, 535.402 617.717 C 534.305 622.845, 528.304 630.300, 523.193 632.885 C 521.162 633.913, 516.125 635.506, 512 636.426 C 500.836 638.916, 499 639.915, 499 643.504 C 499 645.385, 499.716 646.966, 500.904 647.708 C 502.353 648.613, 523.487 648.788, 589.154 648.441 C 636.644 648.190, 685.063 647.988, 696.750 647.992 C 721.517 648.001, 720.928 648.228, 722.853 637.923 C 723.513 634.391, 724.534 629.475, 725.122 627 C 725.710 624.525, 726.369 619.816, 726.587 616.536 C 726.805 613.255, 727.838 606.505, 728.882 601.536 C 729.926 596.566, 730.816 591.825, 730.860 591 C 730.904 590.175, 731.405 587.025, 731.974 584 C 732.962 578.740, 732.896 578.402, 730.448 576.250 C 726.061 572.393, 725.377 572.989, 719.250 586 C 712.301 600.759, 703.112 615, 700.539 615 C 700.252 615, 697.899 616.617, 695.309 618.594 C 690.151 622.531, 681.527 626.996, 679.063 627.006 C 678.203 627.010, 676.369 627.603, 674.986 628.324 C 669.052 631.422, 657.428 632.331, 632.155 631.677 C 603.159 630.925, 599.770 630.153, 592.030 622.529 C 584.712 615.322, 584.925 619.493, 585.233 489.500 L 585.500 376.500 587.842 372 C 592.021 363.970, 599.158 359.708, 612.469 357.294 C 616.886 356.492, 621.175 355.491, 622 355.068 C 623.864 354.112, 624.550 349.150, 623.028 347.628 C 621.831 346.431, 539.426 345.756, 535.500 346.911" fill="#C5A55A" fill-rule="evenodd"/>
</svg>
